
<svg width="40" height="40" viewBox="0 0 40 40" fill="#FFF" xmlns="http://www.w3.org/2000/svg">
<path fill-rule="evenodd" clip-rule="evenodd" d="M36 33.8571L33.8571 36L25.0587 27.2016C22.8434 28.9539 20.0439 30 17 30C9.8203 30 4 24.1797 4 17C4 9.8203 9.8203 4 17 4C24.1797 4 30 9.8203 30 17C30 20.0439 28.9539 22.8434 27.2016 25.0587L36 33.8571ZM17.0305 27.0305C22.5534 27.0305 27.0305 22.5534 27.0305 17.0305C27.0305 11.5077 22.5534 7.03052 17.0305 7.03052C11.5077 7.03052 7.03052 11.5077 7.03052 17.0305C7.03052 22.5534 11.5077 27.0305 17.0305 27.0305Z" fill="#304659"/>
</svg>
